<svg xmlns="http://www.w3.org/2000/svg" xmlns:xlink="http://www.w3.org/1999/xlink" width="1040" height="555" fill="none" xmlns:v="https://vecta.io/nano"><style><![CDATA[.B{opacity:.1}.C{fill:#000}.D{fill:#3f3d56}.E{fill:#65617d}.F{fill:#1f1b63}.G{fill:#323232}.H{fill:#4d4d52}]]></style><g clip-path="url(#A)"><path d="M960.261 438.866l-3.465 7.411-5.324 11.137-2.317 4.777a1485.52 1485.52 0 0 1-23.42 45.959 73.24 73.24 0 0 1-26.57 28.133c-11.212 6.819-24.047 10.489-37.159 10.625l-151.458 1.652h-1.598l-12.983.141-11.106.12-34.057.37h-1.378l-17.338.191h-.53l-106.864 1.161-95.389 1.002-11.096.12-68.912.751h-.08l-44.694.481h-.479l-141.321 1.532-42.276.461c-9.022.102-18.006-1.188-26.636-3.826-15.019-4.549-28.516-13.119-39.04-24.787-18.157-20.06-31.39-43.465-40.279-68.863a235.84 235.84 0 0 1-3.595-11.137C-19.875 341.971 17.638 207.4 85.152 117.345a347.09 347.09 0 0 1 8.629-11.016l.07-.08c20.764-25.558 44.044-46.91 68.843-62.093 43.944-26.95 92.632-34.542 140.521-11.918 40.519 19.149 78.351 28.152 115.024 30.596 3.705.24 7.411.421 11.096.531 84.123 2.654 162.963-27.742 255.546-47.361l11.106-2.283C762.033.541 835.3-6.41 922.429 8.202c9.052 1.483 17.985 3.625 26.726 6.41a171.59 171.59 0 0 1 11.106 4.006c41.589 16.965 64.269 48.312 73.909 87.591a159.21 159.21 0 0 1 2.36 11.126c17.09 94.482-32.95 228.502-76.269 321.531z" fill="#6c63ff" class="B"/><g class="B"><g fill="#b5b0ff"><path opacity=".3" d="M162.694 44.156v510.383l-42.277.461c-9.022.102-18.006-1.188-26.636-3.826V106.249h.07c20.764-25.588 44.044-46.94 68.843-62.093z"/><path opacity=".3" d="M1036.58 117.345H85.152a347.09 347.09 0 0 1 8.629-11.016v-.08h940.439a155.97 155.97 0 0 1 2.36 11.096z"/><path opacity=".3" d="M960.261 18.628v427.639h-3.465l-5.324 11.137-2.317 4.777V14.582a157.08 157.08 0 0 1 11.106 4.046zm-264.274-4.937v535.051l-11.106.12V15.974l11.106-2.283z"/></g><path d="M429.335 63.335v488.31l-11.096.12V62.804c3.705.24 7.411.38 11.096.531z" fill="#6c63ff" class="B"/><path opacity=".3" d="M956.796 446.277l-5.324 11.137H14.492a235.84 235.84 0 0 1-3.595-11.137h945.9z" fill="#b5b0ff"/></g><g class="D"><path d="M230.308 266.228h-18.976v57.747h18.976v-57.747zm510.682-3.004h-18.976v61.091h18.976v-61.091z"/></g><use xlink:href="#B" class="E"/><use xlink:href="#B" opacity=".2" class="C"/><use xlink:href="#C" class="D"/><use xlink:href="#C" class="B C"/><g class="D"><path d="M297.722 484.384v24.527c.001 1.162-.327 2.3-.946 3.282a6.13 6.13 0 0 1-2.549 2.266 5.98 5.98 0 0 1-2.497.601l-34.856.741c-.931.023-1.854-.173-2.697-.57a6.12 6.12 0 0 1-2.599-2.265c-.632-.989-.967-2.139-.966-3.314v-25.268h47.11zm429.455 0h-47.11v31.547h47.11v-31.547z"/></g><path d="M727.177 484.384h-47.11v31.547h47.11v-31.547z" class="B C"/><path d="M725.18 484.384h-47.111v31.547h47.111v-31.547z" class="D"/><path d="M230.308 266.218v5.739l-18.976-.491v-5.248h18.976z" class="B C"/><path d="M355.209 104.556l-22.801 164.246c-.144 1.049-.67 2.008-1.475 2.693s-1.834 1.05-2.889 1.023l-182.569-4.748-3.465-.09c-.604-.014-1.197-.156-1.742-.416a4.29 4.29 0 0 1-1.422-1.092c-.392-.46-.683-.998-.854-1.578s-.217-1.191-.137-1.791l25.598-171.937a4.31 4.31 0 0 1 1.561-2.702c.84-.673 1.9-1.006 2.973-.933l183.227 12.438c.591.034 1.169.191 1.697.461s.994.645 1.369 1.105.652.991.812 1.563.2 1.17.117 1.758z" class="E"/><path d="M175.707 99.309l-19.306 151.557 167.788 5.338 20.633-146.219-169.115-10.675z" class="F"/><path d="M583.2 96.965H389.436c-2.94 0-5.324 2.39-5.324 5.338v162.914c0 2.948 2.384 5.338 5.324 5.338H583.2c2.94 0 5.323-2.39 5.323-5.338V102.303c0-2.948-2.383-5.338-5.323-5.338z" class="E"/><path d="M579.524 108.652H393.76V253.199H579.524V108.652Z" class="F"/><path d="M740.99 263.214v3.795l-18.976.391v-4.186h18.976z" class="B C"/><path d="M826.611 260.009a3.1 3.1 0 0 1-.167 1.223 3.09 3.09 0 0 1-.633 1.06c-.28.307-.619.554-.996.726s-.786.266-1.2.276l-186.963 3.876c-.777.016-1.531-.263-2.11-.782s-.943-1.237-1.016-2.013l-16.07-167.53a3.1 3.1 0 0 1 .132-1.233 3.09 3.09 0 0 1 .606-1.081c.272-.316.606-.572.98-.755s.783-.287 1.199-.306l185.544-9.254 1.998-.1a3.06 3.06 0 0 1 2.173.75c.6.523.974 1.26 1.042 2.054l15.481 173.089z" class="E"/><path d="M628.133 103.315l169.455-8.353L811.9 247.19l-168.117 4.006-15.65-147.881z" class="F"/><g class="C"><path d="M826.611 260.009a3.1 3.1 0 0 1-.167 1.223 3.09 3.09 0 0 1-.633 1.06c-.28.307-.619.554-.996.726s-.786.266-1.2.276L805.917 84.216l1.998-.1a3.06 3.06 0 0 1 2.173.75 3.08 3.08 0 0 1 1.043 2.054l15.48 173.089zM168.017 87.22l-22.542 180.55-3.465-.09c-.604-.014-1.197-.156-1.742-.416a4.29 4.29 0 0 1-1.422-1.092c-.392-.46-.683-.998-.854-1.578a4.32 4.32 0 0 1-.137-1.791l25.598-171.937a4.31 4.31 0 0 1 1.569-2.719 4.29 4.29 0 0 1 2.995-.926zm62.291 219.649h-18.976v17.105h18.976v-17.105zm67.414 177.505v4.978l-47.11 1.262v-6.24h47.11z" class="B"/></g><path d="M380.867 312.828V481.28a4.01 4.01 0 0 1-1.134 2.749c-.716.736-1.687 1.168-2.711 1.207l-191.408 5.107h-.049a3.99 3.99 0 0 1-2.776-1.173c-.737-.739-1.157-1.737-1.169-2.783V312.828c.012-1.045.432-2.044 1.169-2.783a3.99 3.99 0 0 1 2.776-1.173h191.357a3.99 3.99 0 0 1 2.775 1.173c.737.739 1.157 1.738 1.17 2.783z" class="E"/><path d="M185.614 308.872v181.471h-.049a3.99 3.99 0 0 1-2.776-1.173c-.737-.739-1.157-1.737-1.169-2.783V312.828c.012-1.045.432-2.044 1.169-2.783a3.99 3.99 0 0 1 2.776-1.173h.049z" class="B C"/><path d="M194.353 319.628h177.275V468.1l-177.275 4.006V319.628z" class="G"/><g class="C"><path d="M740.99 306.869h-18.976v17.446h18.976v-17.446zm-15.81 177.505v6.42l-47.111-1.262v-5.158h47.111z" class="B"/></g><path d="M787.351 312.828v173.559a4.01 4.01 0 0 1-1.188 2.801 3.99 3.99 0 0 1-2.807 1.155l-191.447-5.107c-1.025-.039-1.996-.471-2.712-1.207s-1.121-1.721-1.133-2.749V312.828a4.01 4.01 0 0 1 1.169-2.783 3.99 3.99 0 0 1 2.776-1.173h191.357a3.99 3.99 0 0 1 2.801 1.159c.745.74 1.171 1.745 1.184 2.797z" class="E"/><path d="M787.351 312.828v173.559a4.01 4.01 0 0 1-1.188 2.801 3.99 3.99 0 0 1-2.807 1.155V308.872c1.051 0 2.059.415 2.807 1.156a4.01 4.01 0 0 1 1.188 2.8z" class="B C"/><path d="M774.617 319.628H597.342V468.1l177.275 4.006V319.628z" class="G"/><path d="M583.11 312.828V481.28a4.01 4.01 0 0 1-1.134 2.749c-.716.736-1.686 1.168-2.711 1.207l-191.407 5.107c-1.051 0-2.06-.415-2.808-1.155s-1.174-1.747-1.187-2.801V312.828c.013-1.045.433-2.044 1.17-2.783a3.99 3.99 0 0 1 2.775-1.173h191.357a3.99 3.99 0 0 1 2.775 1.173c.737.739 1.157 1.738 1.17 2.783z" class="E"/><path d="M396.597 319.628h177.275V468.1l-177.275 4.006V319.628z" class="G"/><path d="M862.006 534.449v13.02l-151.727 1.402-1.618.03-57.667.531-1.378.02-17.528.15h-.52l-106.844.991-175.387 1.633h-.15l-44.594.421-.479.01-198.148 1.822v-15.022l202.253-1.332h.479l40.938-.281h.19l282.721-1.872h.29l.17-.01h.469l4.784-.03h1.458l74.396-.501 4.394-.02.979-.01 142.519-.952z" class="B C"/><g fill="#fbbebe"><path d="M486.642 323.975c28.313 0 51.265-23.016 51.265-51.407s-22.952-51.407-51.265-51.407-51.265 23.015-51.265 51.407 22.953 51.407 51.265 51.407z"/><path d="M537.917 377.725s-99.374 12.018-89.886 0c3.436-4.347 4.385-17.226 4.195-31.898-.06-4.456-.22-9.073-.449-13.67-1.099-22.033-3.746-43.565-3.746-43.565s86.89-41.062 76.903-8.513c-3.995 13.15-2.687 31.617.349 48.953.889 5.058 1.918 10.015 2.997 14.722a345.96 345.96 0 0 0 9.637 33.971z"/></g><path d="M537.917 377.725s-99.374 12.018-89.886 0c3.436-4.347 4.385-17.226 4.195-31.898 15.151-6.489 34.426-1.652 34.426-1.652 20.295-4.056 33.308-3.265 41.628-.421a345.96 345.96 0 0 0 9.637 33.971z" class="B C"/><path d="M349.297 553.358v-.842l175.397-1.912 106.864-1.002h.3l-.11 1.482.15-1.482h.19v-.17l1.368-13.47.519-5.098.16-1.592.14-1.332 6.172-20.641 6.172-20.611 5.194-17.356 7.93-26.52s-4.495-10.515-6.991-13.52-4.994-23.535-4.994-23.535-21.313-20.361-30.631-22.704c-3.905-1.002-11.615-2.334-19.805-4.006l-9.238-2.003-4.994-1.212a87.62 87.62 0 0 1-9.238-2.864c-1.586-.578-3.095-1.348-4.495-2.294-7.34-5.398-25.737-6.009-26.446-6.009a.41.41 0 0 1 0-.07v-.09a10.22 10.22 0 0 0 0-1.262c0-.4 0-.871-.09-1.402 0-.16 0-.33-.07-.501a13.76 13.76 0 0 0-.2-1.141 5.09 5.09 0 0 0-.119-.531 17.25 17.25 0 0 0-1.249-3.495c-.07-.161-.16-.331-.24-.491a18.27 18.27 0 0 0-1.697-2.634 9.59 9.59 0 0 0-.42-.521 19.62 19.62 0 0 0-2.716-2.644c-.27-.21-.55-.43-.839-.631a4.64 4.64 0 0 0-.51-.36l-.889-.581-.829-.481c-.729-.4-1.498-.791-2.337-1.162-.259-.12-.539-.23-.818-.34l-1.089-.421h-.06l-.749-.3c-.569-.19-1.149-.361-1.758-.531l-.929-.24-.998-.231-.999-.21a44.85 44.85 0 0 0-3.186-.521l-1.139-.14-1.168-.12-1.209-.1-1.717-.1-1.998-.07a124.15 124.15 0 0 0-26.207 2.794c-5.983-1.335-12.111-1.901-18.237-1.683h-.868l-.999.06h-.639l-1.289.12c-.429 0-.869.091-1.298.151l-1.308.18-.66.11c-.649.11-1.308.23-1.997.371a7.81 7.81 0 0 0-.659.15c-.869.19-1.738.42-2.597.681-.429.12-.859.26-1.288.411-.22.06-.43.14-.639.22l-.64.23-.629.251-.749.3c-.379.16-.749.331-1.118.511-.21.09-.42.19-.62.3s-.409.201-.599.311a27.73 27.73 0 0 0-6.202 4.386l-.509.491-.5.511c-.17.17-.329.35-.489.531a23.84 23.84 0 0 0-1.818 2.253 14.85 14.85 0 0 0-.459.641 26.67 26.67 0 0 0-1.718 2.924c-.13.241-.25.491-.37.731-.815 1.692-1.483 3.451-1.997 5.258-.187.668-.356 1.336-.509 2.003 0 0-21.144 9.354-38.681 16.124-4.664 1.803-9.059 3.435-12.734 4.667l-2.996 1.002a26.67 26.67 0 0 1-6.242 1.442 19.55 19.55 0 0 0-2.997.28c-8.059 1.312-21.872 7.011-23.38 12.729a3.73 3.73 0 0 0-.1 1.403v.11c.999 7.01-5.992 6.009-5.992 6.009s-2.497 18.527-5.993 23.535c-2.526 3.605-4.254 11.647-4.474 17.716a19.68 19.68 0 0 0 .439 5.639v.14c.4 1.342-.559 5.008-2.187 9.705-1.767 5.157-4.344 11.567-6.821 17.616-3.735 9.134-7.251 17.426-7.471 19.249-.089.811-.349 2.263-.709 4.136-1.458 7.631-4.694 22.163-6.292 28.042l-4.105 14.522c0 .12-.069.24-.099.35l44.773-.441v.842h.14-.06z" class="H"/><g class="C"><path d="M365.636 435.311s56.928 29.544 77.402 26.039l-77.402-26.039zm115.853-12.018s55.43 18.027 73.906 20.531-73.906-20.531-73.906-20.531zm61.482-58.007c-28.963 5.348-83.494 4.197-107.064 3.385 8.639-31.046 50.765-20.49 50.765-20.49 52.144-10.436 56.139 11.216 56.299 17.105z" class="B"/></g><path d="M542.971 363.283c-28.963 5.348-83.494 4.197-107.064 3.385 8.639-31.046 50.765-20.49 50.765-20.49 52.144-10.436 56.139 11.217 56.299 17.105z" class="H"/><path d="M696.716 500.158s34.116-5.258 34.786 9.765-17.398 25.518-17.398 25.518l-17.388-35.283z" fill="#fbbebe"/><path d="M525.283 329.032a46.89 46.89 0 0 1-4.494 1.743c-10.766 3.725-21.623 7.481-32.958 8.843s-23.231.16-33.118-5.508c-1.038-.588-2.039-1.241-2.996-1.953-1.099-22.033-3.746-43.565-3.746-43.565s86.89-41.062 76.903-8.513c-3.975 13.15-2.627 31.617.409 48.953z" class="B C"/><path d="M472.58 192.217a9.43 9.43 0 0 1-4.362.112 9.45 9.45 0 0 1-3.947-1.864l2.077 2.894a8.42 8.42 0 0 1-3.634-.376c-1.17-.389-2.24-1.03-3.137-1.877-.189 2.591-.081 5.195.319 7.761a14.47 14.47 0 0 1-9.548-3.004c-.053.903.171 1.802.643 2.573s1.167 1.38 1.994 1.743c-3.453-.413-6.938.447-9.805 2.421a14.36 14.36 0 0 0-5.775 8.305l5.213.481c-4.097.878-7.774 3.128-10.427 6.38-1.597 2.003-2.816 4.567-2.117 7.01s4.075 4.006 5.913 2.264a28.01 28.01 0 0 0-5.567 10.735c-1.052 3.943-1.232 8.069-.526 12.089a14.54 14.54 0 0 1 .46 5.268c-.33 1.652-1.368 3.084-1.888 4.697-.999 2.924-.05 6.099.839 9.013l4.684 15.443c1.698 5.579 3.386 11.167 5.603 16.565 1.57 3.413 2.905 6.93 3.995 10.526 1.258 4.847 1.308 10.155 3.995 14.391a19.92 19.92 0 0 0 7.171 6.34c9.877 5.668 21.812 6.87 33.118 5.508s22.152-5.118 32.908-8.843c2.39-.722 4.683-1.731 6.831-3.005 7.441-4.887 9.099-14.882 10.487-23.685 1.548-9.815 3.615-19.61 7.281-28.843 2.177-5.499 4.993-11.077 4.514-16.966-.609-7.821-6.781-14.161-8.309-21.852-.512-2.571-.488-5.221.07-7.782a17.74 17.74 0 0 0 .788-4.707c-.169-3.225-2.806-5.709-5.283-7.782a243.08 243.08 0 0 0-16.639-12.759c-.289-2.003 2.427-2.864 3.656-4.446 1.737-2.234-.06-5.779-2.697-6.821s-5.593-.36-8.339.331c.179-1.41-.101-2.84-.797-4.077a6.59 6.59 0 0 0-3.069-2.792 6.57 6.57 0 0 0-4.125-.4c-1.381.316-2.625 1.07-3.545 2.151a10.2 10.2 0 0 0-3.374-4.198 10.17 10.17 0 0 0-5.035-1.891c-6.622-.521-6.751 4.557-10.986 7.351s-7.73-.891-10.986-3.575a9.31 9.31 0 0 0-.549 4.779 9.3 9.3 0 0 0 1.907 4.414z" class="D"/><path d="M722.014 530.203s-.889 2.123-2.527 5.198c-2.478 4.73-5.494 9.156-8.989 13.189l-.269.291h-1.618l-57.667.531h-1.378l-.17-.201-11.186-13.31-4.215-5.017-.169-.21-.36-.421-.2-.24-.259-.311-8.2-9.754 2.996-12.519 5.104-21.092.13-.51.998-4.006.709-3.005 2.377-9.795 8.15-33.7 14.482 7.511 15.27 27.041 8.2 14.521h4.494c.849 0 2.797 1.643 4.754 3.536.699.671 1.398 1.382 1.998 2.003 1.777 1.842 3.186 3.425 3.186 3.425s7.28.16 9.238 5.909a6.97 6.97 0 0 1 .249.851c.65 2.26 1.496 4.458 2.527 6.57 1.289 2.814 2.907 6.009 4.545 9.204a510.46 510.46 0 0 0 7.28 13.46l.14.25.38.601z" class="H"/><path d="M636.223 484.985l-.1 1.432v.101l-.17 2.303-1.328 18.538-1.608 22.333-.46 6.29-.999 13.46v.17l-106.864 1.002-175.367 1.902v.842h-.14v-.842-.28l.449-14.382.859-28.102.739-23.825.07-2.374c.044-1.432.378-2.841.983-4.14s1.467-2.46 2.535-3.413 2.317-1.678 3.673-2.131a10.5 10.5 0 0 1 4.215-.501l18.157 1.412 2.996.22c42.276 2.945 120.407 6.751 199.247 2.003l4.994-.31c12.224-.771 24.439-1.763 36.533-3.005a10.5 10.5 0 0 1 4.528.52 10.52 10.52 0 0 1 3.883 2.392c1.105 1.072 1.961 2.374 2.51 3.814a10.59 10.59 0 0 1 .665 4.521v.05z" class="B C"/><path d="M349.297 553.357v-.841l175.397-1.913 106.864-1.001h.3v-.17l.999-13.461.429-6.009 1.638-22.643 1.288-17.927v-.441c.06-.826.023-1.656-.109-2.474.005-.033.005-.067 0-.1a10.43 10.43 0 0 0-1.998-4.647c-1.1-1.414-2.54-2.524-4.186-3.225a10.52 10.52 0 0 0-5.222-.781c-12.094 1.242-24.309 2.234-36.534 3.005l-4.993.31c-78.84 4.697-156.971.892-199.247-2.003l-2.996-.22-18.157-1.412a10.5 10.5 0 0 0-7.249 2.11c-2.073 1.577-3.49 3.869-3.977 6.433a11.04 11.04 0 0 0-.18 1.642l-.679 22.193-.929 28.112-.439 14.382v.28.841l-.02-.04z" class="D"/><g class="C"><path d="M636.522 492.006l-1.228 15.353-1.828 22.884-.459 5.729-.999 12.829-.06.641v.17l-.15 1.482.11-1.482h-.29l-106.864 1.001-175.427 1.903v-.28l.489-14.382.999-28.102.639-18.678c.031-1.062.327-2.1.861-3.018a6.36 6.36 0 0 1 2.195-2.239c1.131-.696 2.453-1.011 3.775-.902l7.681.591 17.917 1.222 47.939 2.424c51.934 2.003 122.045 2.673 188.641-3.175l9.118-.842c1.198-.119 2.405.11 3.476.661.303.152.591.333.858.541.87.632 1.559 1.482 1.998 2.464a3.61 3.61 0 0 1 .25.611c.3.83.422 1.713.359 2.594zm-338.8 13.71v3.195c.001 1.162-.327 2.3-.946 3.282a6.13 6.13 0 0 1-2.549 2.266l-40.05.772a6.12 6.12 0 0 1-2.599-2.265c-.632-.989-.967-2.139-.966-3.314v-3.004l47.11-.932z" class="B"/></g><path d="M298.221 516.342l-52.183 1.002v-8.683l52.183-1.002v8.683z" class="D"/><path d="M298.221 516.342l-52.183 1.002v-8.683l52.183-1.002v8.683z" class="B C"/><path d="M300.219 516.342l-52.184 1.002v-8.683l52.184-1.002v8.683z" class="D"/><g class="B C"><path d="M472.99 188.933c-.976-1.272-1.624-2.765-1.888-4.347-.241 1.547-.097 3.129.42 4.607a9.05 9.05 0 0 0 1.468-.26zm-12.684 6.65c-.188-1.228-.312-2.465-.37-3.706v3.715l.37-.009zm81.396 33.419a18.54 18.54 0 0 1 .36-2.654c.472-1.523.741-3.102.799-4.697-.022-.357-.076-.713-.16-1.061l-.639 2.754c-.399 1.858-.52 3.765-.36 5.658zm-20.773-30.946l1.088.791c.918-.665 1.777-1.409 2.567-2.223a3.67 3.67 0 0 0 .675-1.772 3.68 3.68 0 0 0-.295-1.873c-.1.228-.227.444-.38.641-1.228 1.582-3.945 2.453-3.655 4.436zm-82.066 9.635a12.4 12.4 0 0 0-.869 2.283 18.13 18.13 0 0 1 4.994-1.893l-4.125-.39zm13.772-10.897c-.656-.362-1.283-.774-1.877-1.232-.025.397.005.794.09 1.182a11.98 11.98 0 0 1 1.787.05zm97.647 59.008c-.41 4.858-2.667 9.535-4.495 14.142-3.665 9.233-5.732 19.028-7.28 28.853-1.389 8.803-2.997 18.798-10.487 23.675a29.92 29.92 0 0 1-6.822 3.005c-10.766 3.735-21.622 7.481-32.958 8.843s-23.23.17-33.118-5.498c-2.866-1.5-5.327-3.676-7.171-6.34-2.666-4.236-2.716-9.544-3.994-14.391-1.091-3.6-2.425-7.12-3.995-10.536-2.208-5.388-3.905-11.017-5.593-16.555l-4.684-15.453c-.513-1.55-.894-3.142-1.139-4.757-.389 2.564.37 5.248 1.139 7.762l4.684 15.453c1.688 5.578 3.385 11.166 5.593 16.554a82.69 82.69 0 0 1 3.995 10.536c1.258 4.847 1.308 10.155 3.994 14.392 1.844 2.664 4.305 4.839 7.171 6.339 9.888 5.669 21.813 6.86 33.118 5.498s22.152-5.107 32.958-8.843c2.39-.713 4.682-1.722 6.822-3.004 7.44-4.878 9.098-14.873 10.487-23.676 1.548-9.824 3.615-19.619 7.28-28.853 2.178-5.488 4.994-11.066 4.515-16.965 0-.06-.02-.12-.02-.181zm-119.539-3.875v-.11c.18-1.766.025-3.551-.459-5.258a26.92 26.92 0 0 1-.39-3.325c-.115 2.118.016 4.242.39 6.329l.459 2.364zm3.046-24.497a27.82 27.82 0 0 1 2.607-3.675c-1.828 1.752-5.203.19-5.912-2.244-.262.985-.262 2.02 0 3.005a4.4 4.4 0 0 0 1.261 1.903c.581.512 1.286.861 2.044 1.011z" class="B"/></g><g class="C"><path d="M683.233 484.384s3.166 11.518 0 21.533 0-21.533 0-21.533zm13.483 11.748s1.328 14.622-1.668 17.216 1.668-17.216 1.668-17.216z" class="B"/></g><g stroke="#6c63ff" stroke-width="2" stroke-miterlimit="10"><path d="M198.738 343.374l101.481-1.002m-101.481 13.49l101.481-.991m-101.481 13.49l101.481-1.002"/></g></g><defs><clipPath id="A"><path fill="#fff" d="M0 0h1040v555H0z"/></clipPath><path id="B" d="M862.006 534.449v13.02l-151.727 1.402-1.618.03-57.667.531-1.378.02-17.528.15h-.52l-106.844.991-175.387 1.633h-.15l-44.594.421-.479.01-198.148 1.822v-15.022l46.59-28.042 93.482-.781 1.997-.01.659-.01 1.998-.03 44.883-.371 2.007-.01.64-.01 1.997-.01 14.392-.12.379-.01 35.505-.301h.29l277.048-2.343 6.782-.05h.679l5.173-.05 37.602-.311 1.998-.03 1.848-.02h.958l11.696-.09 2.317-.03 3.106-.02 9.737-.09 15.451-.13 1.997-.02 3.476-.02h.649l74.615-.641 56.089 28.542z"/><path id="C" d="M295.725 484.384v24.527c0 1.162-.328 2.3-.947 3.282s-1.502 1.768-2.549 2.266c-.779.379-1.631.584-2.497.601l-34.855.741a5.98 5.98 0 0 1-2.697-.57 6.12 6.12 0 0 1-2.599-2.265c-.632-.989-.968-2.139-.967-3.314v-25.268h47.111z"/></defs></svg> 