<svg xmlns="http://www.w3.org/2000/svg" xmlns:xlink="http://www.w3.org/1999/xlink" width="540" height="471" fill="none" xmlns:v="https://vecta.io/nano"><path opacity=".2" d="M488.868 169.368H457.7v16.159h31.168v-16.159zm2.397 19.75h-31.167v16.159h31.167v-16.159zM465.492 52.067h-31.168v16.159h31.168V52.067zm22.176 18.553h-31.167v16.159h31.167V70.62zm-59.937-17.356h-31.167v16.159h31.167V53.264zm100.096 35.909h-31.168v16.159h31.168V89.173zm-37.761 1.197h-31.167v16.159h31.167V90.37zm-40.158-18.553h-31.167v16.159h31.167V71.817zm76.121 141.839h-31.168v16.158h31.168v-16.158zm-37.761 1.197h-31.167v16.158h31.167v-16.158z" fill="#6100ff"/><path d="M78.368 165.179s43.928 43.862 19.132 108.923 42.502 173.342 42.502 173.342-.719-.108-2.056-.341C47.728 431.201 2.901 328.174 53.093 251.659c18.629-28.482 33.937-61.859 25.276-86.48z" fill="#41f823"/><path d="M78.368 165.179s24.796 53.767 0 97.623-4.249 166.975 61.64 184.642" stroke="#535461" stroke-width="2" stroke-miterlimit="10"/><use xlink:href="#B" fill="#8540f5"/><use xlink:href="#B" opacity=".2" fill="#41f823"/><path d="M.126 342.579s38.905 8.529 35.711 43.85 57.78 77.689 115.373 44.108" stroke="#535461" stroke-width="2" stroke-miterlimit="10"/><path opacity=".2" d="M31.545 169.967H.378v16.159h31.167v-16.159z" fill="#6100ff"/><path opacity=".2" d="M53.722 188.52H22.554v16.158h31.167V188.52z" fill="#8540f5"/><path opacity=".2" d="M222.146 0h-31.167v16.159h31.167V0zm245.743 298.041h-31.167v16.158h31.167v-16.158zm-411.77-89.772H24.952v16.159H56.12v-16.159zM244.323 18.553h-31.168v16.159h31.168V18.553zM130.442 128.074H99.274v16.159h31.168v-16.159zm22.177 18.552h-31.168v16.159h31.168v-16.159zm59.338-10.174h-31.168v16.159h31.168v-16.159zm-56.941 29.924h-31.167v16.159h31.167v-16.159zm354.83 131.665h-31.168v16.158h31.168v-16.158z" fill="#6100ff"/><path d="M431.939 234.07a246.34 246.34 0 0 1-3.704-33.94 45.44 45.44 0 0 0-9.429-25.833c-5.736-7.434-13.635-12.914-22.614-15.689-3.273-1.006-6.875-1.945-10.855-2.789-34.883-7.397-45.48-.94-46.685-.09-1.02-1.852-1.907-3.774-2.655-5.751l-.174-.599c6.904-7.351 11.11-16.821 11.934-26.865 5.82-5.889 9.218-12.999 9.218-20.653 0-6.584-2.517-12.76-6.923-18.104V73.355c0-11.995-4.772-23.498-13.266-31.98a45.33 45.33 0 0 0-32.028-13.247h-3.675a45.35 45.35 0 0 0-17.333 3.443c-5.495 2.273-10.489 5.604-14.695 9.804s-7.542 9.185-9.818 14.673-3.448 11.368-3.448 17.307v11.21c-3.998 5.153-6.264 11.036-6.264 17.284 0 7.492 3.261 14.459 8.859 20.276.765 10.412 5.164 20.227 12.431 27.733l.743 5.452-62.395 13.161s-24.058.987-39.558 32.916c-13.109 27.045-39.193 96.528-46.919 117.211l-2.188 5.895s.258-.257.743-.7l-.743 2.017s.378-.383 1.097-1.011c-1.091 8.653-1.247 23.514 10.105 25.363 9.518 1.55 34.045 2.19 52.571 2.448h1.283l21.626.161v-.161h199.255v-2.041c.003-1.851-.37-3.683-1.096-5.386l.275-.336c1.067 1.406 1.776 3.049 2.068 4.788-.023.169-.055.337-.096.503l.12-.305c.047.543.006 1.091-.12 1.622 0 0 25.563-65.767 25.288-105.039a66.49 66.49 0 0 0-.935-12.346zm-159.344-69.872a45.6 45.6 0 0 1-.635-5.674v-.054l.635 5.728zm-77.451 141.264v15.674l-9.83 2.1 9.83-17.774z" fill="url(#A)"/><g fill="#e14b5a"><path d="M301.911 34.454a45.33 45.33 0 0 1 32.028 13.247c8.494 8.482 13.266 19.985 13.266 31.98v19.295h-90.589V79.681c0-11.995 4.772-23.498 13.266-31.98s20.016-13.247 32.029-13.247z"/><path d="M302.228 140.725c28.515 0 51.631-15.859 51.631-35.423s-23.116-35.424-51.631-35.424-51.63 15.86-51.63 35.424 23.116 35.423 51.63 35.423z"/></g><path d="M269.131 139.618s10.789 56.299 0 71.482 32.965 21.192 32.965 21.192l45.289-16.446 6.336-40.487s-27.572-15.5-21.86-46.812l-62.73 11.071zm133.672 189.777s2.853 12.334-12.671 14.549a87.93 87.93 0 0 1-27.619-.329l-3.422-30.984h36.112l7.6 16.764zm-274.117-15.788s-6.857 27.823 8.666 30.337 72.525 2.531 72.525 2.531v-32.916l-25.809 5.506-24.227-23.197-31.155 17.739z" fill="#f7c4a7"/><path opacity=".1" d="M272.464 157.806l-60.663 12.807s-23.124.952-38.012 31.63-47.201 118.294-47.201 118.294 27.571-27.835 59.871 1.897l21.542-38.9-4.753 61.678h166.914v-29.103s34.841 18.66 32.312 29.097c0 0 29.819-76.712 23.375-111.573a236.85 236.85 0 0 1-3.56-32.617c-.38-9.011-3.545-17.684-9.059-24.828s-13.107-12.409-21.737-15.073a119.43 119.43 0 0 0-10.429-2.675c-35.794-7.588-44.953 0-44.953 0s-6.935 22.527-6.809 32.737c.156 13.124-18.688 21.826-18.688 21.826s-27.877-6.643-29.142-12.017-11.238-36.854-9.008-43.18z" fill="#000"/><path d="M272.463 156.543l-60.662 12.808s-23.124.951-38.013 31.629-47.206 118.307-47.206 118.307 27.571-27.836 59.871 1.897l21.542-38.901-4.753 61.661h166.919v-29.098s34.842 18.66 32.313 29.098c0 0 29.819-76.713 23.375-111.574a236.85 236.85 0 0 1-3.56-32.617 43.65 43.65 0 0 0-9.059-24.828c-5.514-7.144-13.107-12.409-21.737-15.072-3.141-.964-6.593-1.868-10.429-2.675-35.795-7.589-44.953 0-44.953 0s-6.935 22.526-6.809 32.736c.156 13.125-18.688 21.827-18.688 21.827s-27.877-6.644-29.142-12.018-11.238-36.854-9.009-43.18z" fill="#8540f5"/><path opacity=".1" d="M334.451 153.856a42.75 42.75 0 0 1-1.655-22.455l-62.73 11.066s.905 4.734 1.93 11.826a43.08 43.08 0 0 0 14.303 9.795c5.383 2.262 11.171 3.408 17.012 3.367a43.11 43.11 0 0 0 16.964-3.605c5.351-2.338 10.17-5.738 14.164-9.994h.012z" fill="#000"/><path d="M345.15 121.592c-.05 11.287-4.539 22.102-12.501 30.113a43.11 43.11 0 0 1-30.061 12.715c-11.302.137-22.206-4.167-30.36-11.984s-12.904-18.52-13.227-29.802v-1.042a42.99 42.99 0 0 1 6.53-22.781c4.269-6.834 10.374-12.334 17.619-15.874 1.291-.63 2.618-1.197 3.98-1.7a43.45 43.45 0 0 1 22.177-2.059c9.542 1.622 18.259 6.409 24.742 13.587s10.353 16.328 10.987 25.972c.076.946.114 1.898.114 2.855z" fill="#f7c4a7"/><path opacity=".01" d="M287.064 82.249l.06-.036-3.98 1.7c-7.245 3.54-13.35 9.04-17.619 15.874a42.98 42.98 0 0 0-6.529 22.781v1.041c1.339-.036 2.656-.352 3.866-.928 10.501-4.895 16.782-19.869 19.275-30.312.9-3.74 1.745-7.954 4.927-10.12zm32.972 1.202c-3.41-1.564-7.011-2.673-10.711-3.298 3.034.697 5.744 2.397 7.69 4.824a19.66 19.66 0 0 1 2.356 4.189c-5.734-2.503-11.943-3.733-18.199-3.603a43.25 43.25 0 0 0-18.034 4.351c2.704 5.919 11.089 9.145 16.687 11.305 6.13 2.362 12.323 4.523 18.581 6.482l-5.539-4.489 12.509 1.987c.135-2.486-.161-4.976-.875-7.361 2.398 1.927 5.574 2.573 8.176 4.189 4.873 3.07 6.905 8.977 9.56 14.094.701 1.353 1.528 2.735 2.793 3.591-.511-7.731-3.103-15.181-7.503-21.563s-10.442-11.461-17.491-14.699z" fill="#000"/><path d="M287.064 81.273l.06-.036-3.98 1.7c-7.245 3.54-13.35 9.04-17.619 15.874a42.98 42.98 0 0 0-6.529 22.781v1.042a9.63 9.63 0 0 0 3.866-.928c10.501-4.896 16.782-19.869 19.275-30.313.9-3.716 1.745-7.948 4.927-10.12zm32.972 1.209a42.77 42.77 0 0 0-10.711-3.298c3.034.697 5.744 2.397 7.69 4.824a19.65 19.65 0 0 1 2.355 4.189 43.25 43.25 0 0 0-18.198-3.603c-6.256.129-12.409 1.614-18.034 4.351 2.703 5.919 11.089 9.145 16.687 11.306 6.129 2.362 12.323 4.522 18.58 6.481l-5.538-4.488 12.509 1.986c.135-2.485-.161-4.976-.875-7.361 2.397 1.927 5.574 2.573 8.175 4.19 4.873 3.07 6.905 8.977 9.56 14.094.702 1.352 1.529 2.735 2.793 3.59-.511-7.73-3.103-15.18-7.502-21.563a43.08 43.08 0 0 0-17.491-14.699z" fill="#632652"/><path opacity=".1" d="M254.081 114.5s44.353-55.059 95.666 0l-4.436-12.334s-24.077-35.107-41.177-27.53-33.894 12.969-33.894 12.969L254.081 114.5z" fill="#000"/><path d="M254.081 113.525s44.353-55.06 95.666 0l-4.436-12.335s-24.077-35.106-41.177-27.53-33.894 12.969-33.894 12.969l-16.159 26.896z" fill="#e14b5a"/><path opacity=".1" d="M217.651 232.137s-9.5 25.303 3.8 48.075-11.718 32.264-11.718 32.264M371.6 209.365s16.471 20.874 5.7 39.535-10.136 63.576-10.136 63.576" fill="#000"/><g fill="#535461"><path d="M203.08 331.136h183.091a15.22 15.22 0 0 1 10.752 4.447c2.852 2.848 4.454 6.71 4.454 10.737H187.88a15.17 15.17 0 0 1 4.452-10.734c2.85-2.848 6.716-4.448 10.748-4.45z"/><path d="M221.708 226.756h145.84a23.4 23.4 0 0 1 8.945 1.777c2.836 1.173 5.413 2.892 7.584 5.06a23.33 23.33 0 0 1 5.067 7.572c1.175 2.832 1.78 5.867 1.78 8.932v84.516H198.333v-84.516c0-6.19 2.463-12.127 6.846-16.504a23.39 23.39 0 0 1 16.529-6.837z"/></g><path d="M294.466 296.82a11.4 11.4 0 0 0 11.406-11.389 11.4 11.4 0 1 0-22.812 0 11.4 11.4 0 0 0 11.406 11.389z" fill="#6100ff"/><path opacity=".1" d="M256.616 88.694s43.586-43.497 90.595-.796" stroke="#000" stroke-miterlimit="10"/><path d="M358.222 85.923h-4.375v24.771h4.375V85.923z" fill="#6a5c99"/><path d="M348.009 101.95a15.09 15.09 0 0 1 10.663 4.411c2.828 2.823 4.417 6.653 4.417 10.647v.969c0 3.994-1.589 7.824-4.417 10.648a15.09 15.09 0 0 1-10.663 4.41V101.95z" fill="#ffd037"/><path d="M351.899 103.895c0-1.877-1.525-3.399-3.405-3.399s-3.404 1.522-3.404 3.399v27.201c0 1.877 1.524 3.399 3.404 3.399s3.405-1.522 3.405-3.399v-27.201zm-106.743 7.284h4.375V86.408h-4.375v24.771z" fill="#6a5c99"/><path d="M255.369 133.52c-3.999 0-7.835-1.587-10.663-4.41s-4.417-6.654-4.417-10.648v-.969c0-1.978.39-3.936 1.148-5.763a15.07 15.07 0 0 1 3.269-4.885 15.09 15.09 0 0 1 4.892-3.264c1.83-.756 3.791-1.146 5.771-1.146v31.085z" fill="#ffd037"/><path d="M251.479 131.575c0 1.877 1.525 3.399 3.405 3.399s3.404-1.522 3.404-3.399v-27.201c0-1.877-1.524-3.399-3.404-3.399s-3.405 1.522-3.405 3.399v27.201z" fill="#6a5c99"/><path d="M353.331 59.447c-5.928-12.305-18.838-27.183-46.667-28.374v-.036h-.336l-9.86.467v.048c-27.643 1.269-40.493 16.093-46.403 28.356-3.936 8.313-6.026 17.377-6.126 26.572l3.405-.084 3.404-.078c.147-8.186 2.033-16.248 5.532-23.652 7.505-15.393 21.314-23.574 41.039-24.334l8.721-.485c19.738.754 33.553 8.947 41.052 24.334a57.78 57.78 0 0 1 5.544 23.664l3.404.078 3.405.084c-.098-9.19-2.184-18.25-6.114-26.56z" fill="#ffd037"/><path d="M508.863 346.517H44.522V471h464.342V346.517z" fill="#4c238d"/><path opacity=".1" d="M508.863 354.896H44.522v16.159h464.342v-16.159z" fill="#000"/><path d="M540 344.722H13.372v16.159H540v-16.159z" fill="#4c238d"/><defs><linearGradient id="A" x1="276.689" y1="352.801" x2="276.689" y2="28.128" gradientUnits="userSpaceOnUse"><stop stop-color="gray" stop-opacity=".25"/><stop offset=".54" stop-color="gray" stop-opacity=".12"/><stop offset="1" stop-color="gray" stop-opacity=".1"/></linearGradient><path id="B" d="M.126 342.579s50.126-7.972 54.693 36.884 96.391 51.074 96.391 51.074l-1.72 1.143C73.675 481.354 1.205 463.333 12.131 397.352c4.058-24.532 3.722-49.171-12.005-54.773z"/></defs></svg> 