<svg xmlns="https://www.w3.org/2000/svg" width="150" height="150" fill="none" xmlns:v="https://vecta.io/nano"><circle cx="75" cy="75" r="50" fill="#233268"/><path d="M74.514 88.344h12.992V96h-22.91V55.284h9.918v33.06z" fill="#fff"/><mask id="A" mask-type="alpha" maskUnits="userSpaceOnUse" x="64" y="55" width="24" height="41"><path d="M74.514 88.344h12.992V96h-22.91V55.284h9.918v33.06z" fill="#fff"/></mask><g mask="url(#A)"><path d="M69.5 68.5c-.4-6-7.089-8.833-9.923-9.5-.5.333-1.7 1.2-2.5 2-1 1-2.5 8.5-3.5 10s-.5 14.5 0 20.5 1.5 5.5 2.5 9 8 4 10.5 3.5c2-.4 11.167-4.833 15.5-7l.011-.028c.374-.935 2.764-6.899-2.589-5.472-7.5 2-8.5 2-10.5-.5s.9-16.5.5-22.5z" fill="url(#B)"/></g><defs><linearGradient id="B" x1="64.5" y1="61.5" x2="81" y2="96.5" gradientUnits="userSpaceOnUse"><stop stop-color="#ff2b2b"/><stop offset="1" stop-color="#ff8b8b"/></linearGradient></defs></svg>