<svg xmlns="http://www.w3.org/2000/svg" width="213" height="87" fill="none" xmlns:v="https://vecta.io/nano"><g filter="url(#A)"><path d="M14.508 59V16.4h9.84v33.96h20.64V59h-30.48zm69.463 0V37.34h-4.02v-7.26h4.02V27.5c0-1.96.26-3.74.78-5.34s1.26-2.96 2.22-4.08a9.66 9.66 0 0 1 3.48-2.58c1.36-.6 2.86-.9 4.5-.9 2.56 0 5.3.62 8.22 1.86l-1.74 7.2c-.64-.28-1.36-.5-2.16-.66-.76-.2-1.48-.3-2.16-.3-2.36 0-3.54 1.48-3.54 4.44v2.94h7.32v7.26h-7.32V59h-9.6zm34.524.6c-2.64 0-5.02-.42-7.14-1.26-2.08-.88-3.86-2.06-5.34-3.54a15.34 15.34 0 0 1-3.3-5.1c-.76-1.96-1.14-4-1.14-6.12 0-2.28.38-4.42 1.14-6.42.76-2.04 1.86-3.82 3.3-5.34s3.2-2.72 5.28-3.6c2.12-.88 4.52-1.32 7.2-1.32s5.06.44 7.14 1.32 3.84 2.08 5.28 3.6c1.44 1.48 2.52 3.2 3.24 5.16.76 1.96 1.14 4.02 1.14 6.18l-.06 1.68c-.04.52-.1.98-.18 1.38h-23.28c.16 2.12.92 3.74 2.28 4.86a7.56 7.56 0 0 0 4.74 1.62c1.4 0 2.74-.34 4.02-1.02 1.32-.68 2.2-1.6 2.64-2.76l8.16 2.28c-1.24 2.48-3.16 4.5-5.76 6.06s-5.72 2.34-9.36 2.34zm6.66-19.32c-.2-2-.92-3.58-2.16-4.74s-2.78-1.74-4.62-1.74c-1.88 0-3.44.6-4.68 1.8-1.2 1.16-1.9 2.72-2.1 4.68h13.56zm12.103 12.96l16.08-19.08h-15.24V27.5h25.26v5.76l-15.96 19.08h16.38V59h-26.52v-5.76zm31.749 10.5a14.3 14.3 0 0 0 2.22.6c.72.12 1.36.18 1.92.18 1.16 0 2.06-.4 2.7-1.2s1.22-2.24 1.74-4.32l-12-31.5h9.9l7.32 23.28 6.3-23.28h9l-12 36.6c-.84 2.6-2.34 4.7-4.5 6.3-2.16 1.64-4.72 2.46-7.68 2.46-.8 0-1.62-.08-2.46-.24-.8-.12-1.62-.34-2.46-.66v-8.22z" fill="#fff"/><path d="M49.065 63.74a14.3 14.3 0 0 0 2.22.6c.72.12 1.36.18 1.92.18 1.16 0 2.06-.4 2.7-1.2s1.22-2.24 1.74-4.32l-12-31.5h9.9l7.32 23.28 6.3-23.28h9l-12 36.6c-.84 2.6-2.34 4.7-4.5 6.3-2.16 1.64-4.72 2.46-7.68 2.46-.8 0-1.62-.08-2.46-.24-.8-.12-1.62-.34-2.46-.66v-8.22z" fill="#f44"/></g><defs><filter id="A" x=".508" y=".6" width="211.599" height="86.26" filterUnits="userSpaceOnUse" color-interpolation-filters="sRGB"><feFlood flood-opacity="0" result="A"/><feColorMatrix in="SourceAlpha" values="0 0 0 0 0 0 0 0 0 0 0 0 0 0 0 0 0 0 127 0"/><feOffset/><feGaussianBlur stdDeviation="7"/><feColorMatrix values="0 0 0 0 0 0 0 0 0 0 0 0 0 0 0 0 0 0 0.25 0"/><feBlend in2="A"/><feBlend in="SourceGraphic"/></filter></defs></svg> 